<?xml version="1.0" encoding="UTF-8"?>
<!DOCTYPE svg
PUBLIC "-//W3C//DTD SVG 1.1//EN"
       "http://www.w3.org/Graphics/SVG/1.1/DTD/svg11.dtd">
<svg viewBox="46 35 903 617" width="857px" height="582px" xmlns="http://www.w3.org/2000/svg" version="1.1">
   <line x1="533" y1="100" x2="523" y2="100" style="stroke:#bbb;stroke-width:1;"/>
   <line x1="550" y1="148" x2="540" y2="148" style="stroke:#bbb;stroke-width:1;"/>
   <line x1="523" y1="100" x2="550" y2="148" style="stroke:#bbb;stroke-width:1;"/>
   <line x1="525.5" y1="100" x2="529.03553390593" y2="103.53553390593" style="stroke:#bbb;stroke-width:2;"/>
   <line x1="525.5" y1="100" x2="529.03553390593" y2="96.464466094067" style="stroke:#bbb;stroke-width:2;"/>
   <line x1="545" y1="148" x2="548.53553390593" y2="151.53553390593" style="stroke:#bbb;stroke-width:2;"/>
   <line x1="545" y1="148" x2="548.53553390593" y2="144.46446609407" style="stroke:#bbb;stroke-width:2;"/>
   <line x1="453" y1="410" x2="443" y2="410" style="stroke:#333;stroke-width:1;"/>
   <line x1="352" y1="148" x2="362" y2="148" style="stroke:#333;stroke-width:1;"/>
   <line x1="443" y1="410" x2="352" y2="148" style="stroke:#333;stroke-width:1;"/>
   <line x1="445.5" y1="410" x2="449.03553390593" y2="413.53553390593" style="stroke:#333;stroke-width:2;"/>
   <line x1="445.5" y1="410" x2="449.03553390593" y2="406.46446609407" style="stroke:#333;stroke-width:2;"/>
   <line x1="357" y1="148" x2="353.46446609407" y2="151.53553390593" style="stroke:#333;stroke-width:2;"/>
   <line x1="357" y1="148" x2="353.46446609407" y2="144.46446609407" style="stroke:#333;stroke-width:2;"/>
   <rect width="178" height="20" x="705" y="361" style="fill:#007;stroke:black;"/>
   <text width="178" height="20" x="710" y="375" style="fill:#fff;" font-family="Arial" font-size="16px"> colors</text>
   <rect width="178" height="20" x="705" y="381" style="fill:#aea;stroke:black;"/>
   <text width="178" height="20" x="710" y="395" style="fill:black;" font-family="Arial" font-size="16px">id</text>
   <rect width="178" height="20" x="342" y="523" style="fill:#007;stroke:black;"/>
   <text width="178" height="20" x="347" y="537" style="fill:#fff;" font-family="Arial" font-size="16px"> failed_jobs</text>
   <rect width="178" height="20" x="342" y="543" style="fill:#aea;stroke:black;"/>
   <text width="178" height="20" x="347" y="557" style="fill:black;" font-family="Arial" font-size="16px">id</text>
   <rect width="178" height="20" x="342" y="563" style="fill:none;stroke:black;"/>
   <text width="178" height="20" x="347" y="577" style="fill:black;" font-family="Arial" font-size="16px">uuid</text>
   <rect width="178" height="20" x="529" y="158" style="fill:#007;stroke:black;"/>
   <text width="178" height="20" x="534" y="172" style="fill:#fff;" font-family="Arial" font-size="16px"> migrations</text>
   <rect width="178" height="20" x="529" y="178" style="fill:#aea;stroke:black;"/>
   <text width="178" height="20" x="534" y="192" style="fill:black;" font-family="Arial" font-size="16px">id</text>
   <rect width="178" height="20" x="533" y="50" style="fill:#007;stroke:black;"/>
   <text width="178" height="20" x="538" y="64" style="fill:#fff;" font-family="Arial" font-size="16px"> pages</text>
   <rect width="178" height="20" x="533" y="70" style="fill:#aea;stroke:black;"/>
   <text width="178" height="20" x="538" y="84" style="fill:black;" font-family="Arial" font-size="16px">id</text>
   <rect width="178" height="20" x="533" y="90" style="fill:none;stroke:black;"/>
   <text width="178" height="20" x="538" y="104" style="fill:black;" font-family="Arial" font-size="16px">user_id</text>
   <rect width="178" height="20" x="575" y="107" style="fill:#007;stroke:black;"/>
   <text width="178" height="20" x="580" y="121" style="fill:#fff;" font-family="Arial" font-size="16px"> password_reset_tokens</text>
   <rect width="178" height="20" x="575" y="127" style="fill:none;stroke:black;"/>
   <text width="178" height="20" x="580" y="141" style="fill:black;" font-family="Arial" font-size="16px">email</text>
   <rect width="178" height="20" x="340" y="439" style="fill:#007;stroke:black;"/>
   <text width="178" height="20" x="345" y="453" style="fill:#fff;" font-family="Arial" font-size="16px"> personal_access_tokens</text>
   <rect width="178" height="20" x="340" y="459" style="fill:#aea;stroke:black;"/>
   <text width="178" height="20" x="345" y="473" style="fill:black;" font-family="Arial" font-size="16px">id</text>
   <rect width="178" height="20" x="340" y="479" style="fill:none;stroke:black;"/>
   <text width="178" height="20" x="345" y="493" style="fill:black;" font-family="Arial" font-size="16px">token</text>
   <rect width="178" height="20" x="340" y="499" style="fill:none;stroke:black;"/>
   <text width="178" height="20" x="345" y="513" style="fill:black;" font-family="Arial" font-size="16px">tokenable_type</text>
   <rect width="178" height="20" x="340" y="519" style="fill:none;stroke:black;"/>
   <text width="178" height="20" x="345" y="533" style="fill:black;" font-family="Arial" font-size="16px">tokenable_id</text>
   <rect width="178" height="20" x="453" y="360" style="fill:#007;stroke:black;"/>
   <text width="178" height="20" x="458" y="374" style="fill:#fff;" font-family="Arial" font-size="16px"> posts</text>
   <rect width="178" height="20" x="453" y="380" style="fill:#aea;stroke:black;"/>
   <text width="178" height="20" x="458" y="394" style="fill:black;" font-family="Arial" font-size="16px">id</text>
   <rect width="178" height="20" x="453" y="400" style="fill:none;stroke:black;"/>
   <text width="178" height="20" x="458" y="414" style="fill:black;" font-family="Arial" font-size="16px">user_id</text>
   <rect width="178" height="20" x="61" y="446" style="fill:#007;stroke:black;"/>
   <text width="178" height="20" x="66" y="460" style="fill:#fff;" font-family="Arial" font-size="16px"> roles</text>
   <rect width="178" height="20" x="61" y="466" style="fill:#aea;stroke:black;"/>
   <text width="178" height="20" x="66" y="480" style="fill:black;" font-family="Arial" font-size="16px">id</text>
   <rect width="178" height="20" x="710" y="447" style="fill:#007;stroke:black;"/>
   <text width="178" height="20" x="715" y="461" style="fill:#fff;" font-family="Arial" font-size="16px"> sessions</text>
   <rect width="178" height="20" x="710" y="467" style="fill:none;stroke:black;"/>
   <text width="178" height="20" x="715" y="481" style="fill:black;" font-family="Arial" font-size="16px">id</text>
   <rect width="178" height="20" x="710" y="487" style="fill:none;stroke:black;"/>
   <text width="178" height="20" x="715" y="501" style="fill:black;" font-family="Arial" font-size="16px">user_id</text>
   <rect width="178" height="20" x="710" y="507" style="fill:none;stroke:black;"/>
   <text width="178" height="20" x="715" y="521" style="fill:black;" font-family="Arial" font-size="16px">last_activity</text>
   <rect width="178" height="20" x="565" y="562" style="fill:#007;stroke:black;"/>
   <text width="178" height="20" x="570" y="576" style="fill:#fff;" font-family="Arial" font-size="16px"> sizes</text>
   <rect width="178" height="20" x="565" y="582" style="fill:#aea;stroke:black;"/>
   <text width="178" height="20" x="570" y="596" style="fill:black;" font-family="Arial" font-size="16px">id</text>
   <rect width="178" height="20" x="362" y="118" style="fill:#007;stroke:black;"/>
   <text width="178" height="20" x="367" y="132" style="fill:#fff;" font-family="Arial" font-size="16px"> users</text>
   <rect width="178" height="20" x="362" y="138" style="fill:#aea;stroke:black;"/>
   <text width="178" height="20" x="367" y="152" style="fill:black;" font-family="Arial" font-size="16px">id</text>
   <rect width="178" height="20" x="362" y="158" style="fill:none;stroke:black;"/>
   <text width="178" height="20" x="367" y="172" style="fill:black;" font-family="Arial" font-size="16px">email</text>
</svg>
